<svg xmlns="http://www.w3.org/2000/svg" viewBox="0 0 20 20" 
shape-rendering="geometricPrecision">
<title>Aztec diamond AD(10) — aiui demo</title>
<rect x="9.080" y="0.080" width="1.840" height="0.840" fill="#4a86dd"/><rect x="9.080" y="19.080" width="1.840" height="0.840" fill="#2fa876"/><rect x="8.080" y="1.080" width="1.840" height="0.840" fill="#4a86dd"/><rect x="8.080" y="18.080" width="1.840" height="0.840" fill="#2fa876"/><rect x="19.080" y="9.080" width="0.840" height="1.840" fill="#c9822f"/><rect x="18.080" y="8.080" width="0.840" height="1.840" fill="#c9822f"/><rect x="0.080" y="9.080" width="0.840" height="1.840" fill="#9b6fdb"/><rect x="10.080" y="18.080" width="1.840" height="0.840" fill="#2fa876"/><rect x="10.080" y="1.080" width="1.840" height="0.840" fill="#4a86dd"/><rect x="7.080" y="2.080" width="1.840" height="0.840" fill="#4a86dd"/><rect x="1.080" y="10.080" width="0.840" height="1.840" fill="#9b6fdb"/><rect x="11.080" y="17.080" width="1.840" height="0.840" fill="#2fa876"/><rect x="9.080" y="2.080" width="1.840" height="0.840" fill="#4a86dd"/><rect x="17.080" y="7.080" width="0.840" height="1.840" fill="#c9822f"/><rect x="1.080" y="8.080" width="0.840" height="1.840" fill="#9b6fdb"/><rect x="9.080" y="15.080" width="1.840" height="0.840" fill="#2fa876"/><rect x="12.080" y="16.080" width="1.840" height="0.840" fill="#2fa876"/><rect x="7.080" y="17.080" width="1.840" height="0.840" fill="#2fa876"/><rect x="11.080" y="2.080" width="1.840" height="0.840" fill="#4a86dd"/><rect x="2.080" y="7.080" width="0.840" height="1.840" fill="#9b6fdb"/><rect x="8.080" y="3.080" width="1.840" height="0.840" fill="#4a86dd"/><rect x="2.080" y="9.080" width="0.840" height="1.840" fill="#9b6fdb"/><rect x="8.080" y="14.080" width="1.840" height="0.840" fill="#2fa876"/><rect x="10.080" y="14.080" width="1.840" height="0.840" fill="#2fa876"/><rect x="13.080" y="15.080" width="1.840" height="0.840" fill="#2fa876"/><rect x="6.080" y="16.080" width="1.840" height="0.840" fill="#2fa876"/><rect x="3.080" y="6.080" width="0.840" height="1.840" fill="#9b6fdb"/><rect x="10.080" y="3.080" width="1.840" height="0.840" fill="#4a86dd"/><rect x="16.080" y="6.080" width="0.840" height="1.840" fill="#c9822f"/><rect x="3.080" y="8.080" width="0.840" height="1.840" fill="#9b6fdb"/><rect x="10.080" y="8.080" width="0.840" height="1.840" fill="#c9822f"/><rect x="15.080" y="9.080" width="0.840" height="1.840" fill="#c9822f"/><rect x="18.080" y="10.080" width="0.840" height="1.840" fill="#c9822f"/><rect x="2.080" y="11.080" width="0.840" height="1.840" fill="#9b6fdb"/><rect x="13.080" y="13.080" width="0.840" height="1.840" fill="#c9822f"/><rect x="4.080" y="5.080" width="0.840" height="1.840" fill="#9b6fdb"/><rect x="9.080" y="5.080" width="0.840" height="1.840" fill="#c9822f"/><rect x="12.080" y="3.080" width="1.840" height="0.840" fill="#4a86dd"/><rect x="9.080" y="4.080" width="1.840" height="0.840" fill="#4a86dd"/><rect x="14.080" y="7.080" width="1.840" height="0.840" fill="#4a86dd"/><rect x="14.080" y="12.080" width="1.840" height="0.840" fill="#2fa876"/><rect x="3.080" y="10.080" width="0.840" height="1.840" fill="#9b6fdb"/><rect x="8.080" y="10.080" width="0.840" height="1.840" fill="#c9822f"/><rect x="7.080" y="8.080" width="1.840" height="0.840" fill="#4a86dd"/><rect x="7.080" y="13.080" width="1.840" height="0.840" fill="#2fa876"/><rect x="9.080" y="13.080" width="1.840" height="0.840" fill="#2fa876"/><rect x="11.080" y="13.080" width="1.840" height="0.840" fill="#2fa876"/><rect x="17.080" y="11.080" width="0.840" height="1.840" fill="#c9822f"/><rect x="3.080" y="12.080" width="0.840" height="1.840" fill="#9b6fdb"/><rect x="7.080" y="14.080" width="0.840" height="1.840" fill="#9b6fdb"/><rect x="12.080" y="14.080" width="0.840" height="1.840" fill="#c9822f"/><rect x="6.080" y="3.080" width="1.840" height="0.840" fill="#4a86dd"/><rect x="11.080" y="4.080" width="1.840" height="0.840" fill="#4a86dd"/><rect x="13.080" y="4.080" width="1.840" height="0.840" fill="#4a86dd"/><rect x="5.080" y="6.080" width="1.840" height="0.840" fill="#4a86dd"/><rect x="5.080" y="9.080" width="1.840" height="0.840" fill="#2fa876"/><rect x="6.080" y="7.080" width="0.840" height="1.840" fill="#9b6fdb"/><rect x="9.080" y="7.080" width="0.840" height="1.840" fill="#c9822f"/><rect x="10.080" y="7.080" width="1.840" height="0.840" fill="#4a86dd"/><rect x="10.080" y="10.080" width="1.840" height="0.840" fill="#2fa876"/><rect x="12.080" y="7.080" width="1.840" height="0.840" fill="#4a86dd"/><rect x="12.080" y="10.080" width="1.840" height="0.840" fill="#2fa876"/><rect x="4.080" y="9.080" width="0.840" height="1.840" fill="#9b6fdb"/><rect x="7.080" y="9.080" width="0.840" height="1.840" fill="#c9822f"/><rect x="15.080" y="8.080" width="1.840" height="0.840" fill="#4a86dd"/><rect x="15.080" y="11.080" width="1.840" height="0.840" fill="#2fa876"/><rect x="8.080" y="9.080" width="1.840" height="0.840" fill="#4a86dd"/><rect x="8.080" y="12.080" width="1.840" height="0.840" fill="#2fa876"/><rect x="9.080" y="10.080" width="0.840" height="1.840" fill="#9b6fdb"/><rect x="14.080" y="10.080" width="0.840" height="1.840" fill="#c9822f"/><rect x="4.080" y="11.080" width="0.840" height="1.840" fill="#9b6fdb"/><rect x="7.080" y="11.080" width="0.840" height="1.840" fill="#c9822f"/><rect x="16.080" y="12.080" width="0.840" height="1.840" fill="#c9822f"/><rect x="4.080" y="13.080" width="0.840" height="1.840" fill="#9b6fdb"/><rect x="8.080" y="15.080" width="0.840" height="1.840" fill="#9b6fdb"/><rect x="11.080" y="15.080" width="0.840" height="1.840" fill="#c9822f"/><rect x="5.080" y="4.080" width="1.840" height="0.840" fill="#4a86dd"/><rect x="5.080" y="5.080" width="1.840" height="0.840" fill="#2fa876"/><rect x="7.080" y="4.080" width="0.840" height="1.840" fill="#9b6fdb"/><rect x="8.080" y="4.080" width="0.840" height="1.840" fill="#c9822f"/><rect x="10.080" y="5.080" width="0.840" height="1.840" fill="#9b6fdb"/><rect x="11.080" y="5.080" width="0.840" height="1.840" fill="#c9822f"/><rect x="12.080" y="5.080" width="0.840" height="1.840" fill="#9b6fdb"/><rect x="13.080" y="5.080" width="0.840" height="1.840" fill="#c9822f"/><rect x="14.080" y="5.080" width="0.840" height="1.840" fill="#9b6fdb"/><rect x="15.080" y="5.080" width="0.840" height="1.840" fill="#c9822f"/><rect x="7.080" y="6.080" width="0.840" height="1.840" fill="#9b6fdb"/><rect x="8.080" y="6.080" width="0.840" height="1.840" fill="#c9822f"/><rect x="4.080" y="7.080" width="0.840" height="1.840" fill="#9b6fdb"/><rect x="5.080" y="7.080" width="0.840" height="1.840" fill="#c9822f"/><rect x="11.080" y="8.080" width="0.840" height="1.840" fill="#9b6fdb"/><rect x="12.080" y="8.080" width="0.840" height="1.840" fill="#c9822f"/><rect x="13.080" y="8.080" width="0.840" height="1.840" fill="#9b6fdb"/><rect x="14.080" y="8.080" width="0.840" height="1.840" fill="#c9822f"/><rect x="16.080" y="9.080" width="0.840" height="1.840" fill="#9b6fdb"/><rect x="17.080" y="9.080" width="0.840" height="1.840" fill="#c9822f"/><rect x="5.080" y="10.080" width="0.840" height="1.840" fill="#9b6fdb"/><rect x="6.080" y="10.080" width="0.840" height="1.840" fill="#c9822f"/><rect x="10.080" y="11.080" width="1.840" height="0.840" fill="#4a86dd"/><rect x="10.080" y="12.080" width="1.840" height="0.840" fill="#2fa876"/><rect x="12.080" y="11.080" width="0.840" height="1.840" fill="#9b6fdb"/><rect x="13.080" y="11.080" width="0.840" height="1.840" fill="#c9822f"/><rect x="5.080" y="12.080" width="1.840" height="0.840" fill="#4a86dd"/><rect x="5.080" y="13.080" width="1.840" height="0.840" fill="#2fa876"/><rect x="14.080" y="13.080" width="0.840" height="1.840" fill="#9b6fdb"/><rect x="15.080" y="13.080" width="0.840" height="1.840" fill="#c9822f"/><rect x="5.080" y="14.080" width="0.840" height="1.840" fill="#9b6fdb"/><rect x="6.080" y="14.080" width="0.840" height="1.840" fill="#c9822f"/><rect x="9.080" y="16.080" width="0.840" height="1.840" fill="#9b6fdb"/><rect x="10.080" y="16.080" width="0.840" height="1.840" fill="#c9822f"/>
</svg>
